<svg xmlns="http://www.w3.org/2000/svg" xmlns:xlink="http://www.w3.org/1999/xlink" width="500" zoomAndPan="magnify" viewBox="0 0 375 374.999991" height="500" preserveAspectRatio="xMidYMid meet" version="1.0"><defs><g/></defs><rect x="-37.5" width="450" fill="#ffffff" y="-37.499999" height="449.999989" fill-opacity="1"/><rect x="-37.5" width="450" fill="#292929" y="-37.499999" height="449.999989" fill-opacity="1"/><g fill="#e4e2dd" fill-opacity="1"><g transform="translate(41.509848, 202.016094)"><g><path d="M 3.21875 -44.1875 L 16.921875 -44.1875 C 21.066406 -44.1875 24.367188 -43.300781 26.828125 -41.53125 C 29.296875 -39.769531 30.53125 -36.90625 30.53125 -32.9375 C 30.53125 -28.507812 28.691406 -25.347656 25.015625 -23.453125 C 31.296875 -22.347656 34.4375 -18.632812 34.4375 -12.3125 C 34.4375 -8.601562 33.148438 -5.625 30.578125 -3.375 C 28.015625 -1.125 24.484375 0 19.984375 0 L 3.21875 0 Z M 13.28125 -26.890625 L 14.09375 -26.890625 C 16.34375 -26.890625 18.019531 -27.28125 19.125 -28.0625 C 20.226562 -28.851562 20.78125 -30.140625 20.78125 -31.921875 C 20.78125 -34.921875 18.550781 -36.421875 14.09375 -36.421875 L 13.28125 -36.421875 Z M 13.28125 -7.765625 L 16.4375 -7.765625 C 21.363281 -7.765625 23.828125 -9.40625 23.828125 -12.6875 C 23.828125 -14.65625 23.210938 -16.066406 21.984375 -16.921875 C 20.753906 -17.785156 18.90625 -18.21875 16.4375 -18.21875 L 13.28125 -18.21875 Z M 13.28125 -7.765625 "/></g></g></g><g fill="#e4e2dd" fill-opacity="1"><g transform="translate(72.623177, 202.016094)"><g><path d="M 5.078125 -3.40625 C 2.515625 -6.207031 1.234375 -9.640625 1.234375 -13.703125 C 1.234375 -17.773438 2.515625 -21.222656 5.078125 -24.046875 C 7.648438 -26.867188 10.921875 -28.28125 14.890625 -28.28125 C 18.535156 -28.28125 21.535156 -27.140625 23.890625 -24.859375 L 23.890625 -27.484375 L 33.375 -27.484375 L 33.375 0 L 24 0 L 24 -3.109375 L 23.890625 -3.109375 C 21.535156 -0.503906 18.535156 0.796875 14.890625 0.796875 C 10.921875 0.796875 7.648438 -0.601562 5.078125 -3.40625 Z M 13.140625 -18.359375 C 11.910156 -17.148438 11.296875 -15.597656 11.296875 -13.703125 C 11.296875 -11.816406 11.882812 -10.273438 13.0625 -9.078125 C 14.25 -7.878906 15.804688 -7.28125 17.734375 -7.28125 C 19.585938 -7.28125 21.113281 -7.882812 22.3125 -9.09375 C 23.507812 -10.3125 24.109375 -11.851562 24.109375 -13.71875 C 24.109375 -15.601562 23.488281 -17.148438 22.25 -18.359375 C 21.019531 -19.578125 19.515625 -20.1875 17.734375 -20.1875 C 15.910156 -20.1875 14.378906 -19.578125 13.140625 -18.359375 Z M 13.140625 -18.359375 "/></g></g></g><g fill="#e4e2dd" fill-opacity="1"><g transform="translate(104.646922, 202.016094)"><g><path d="M 31.484375 -24.046875 C 34.054688 -21.222656 35.34375 -17.773438 35.34375 -13.703125 C 35.34375 -9.640625 34.054688 -6.207031 31.484375 -3.40625 C 28.921875 -0.601562 25.65625 0.796875 21.6875 0.796875 C 18.050781 0.796875 15.050781 -0.503906 12.6875 -3.109375 L 12.59375 -3.109375 L 12.59375 0 L 3.21875 0 L 3.21875 -46.0625 L 12.6875 -46.0625 L 12.6875 -24.859375 C 15.050781 -27.140625 18.050781 -28.28125 21.6875 -28.28125 C 25.65625 -28.28125 28.921875 -26.867188 31.484375 -24.046875 Z M 23.515625 -9.078125 C 24.691406 -10.273438 25.28125 -11.816406 25.28125 -13.703125 C 25.28125 -15.597656 24.660156 -17.148438 23.421875 -18.359375 C 22.191406 -19.578125 20.671875 -20.1875 18.859375 -20.1875 C 17.066406 -20.1875 15.554688 -19.578125 14.328125 -18.359375 C 13.097656 -17.148438 12.484375 -15.601562 12.484375 -13.71875 C 12.484375 -11.851562 13.078125 -10.3125 14.265625 -9.09375 C 15.460938 -7.882812 16.992188 -7.28125 18.859375 -7.28125 C 20.785156 -7.28125 22.335938 -7.878906 23.515625 -9.078125 Z M 23.515625 -9.078125 "/></g></g></g><g fill="#e4e2dd" fill-opacity="1"><g transform="translate(136.670667, 202.016094)"><g><path d="M 4.125 -42.796875 C 5.226562 -43.898438 6.546875 -44.453125 8.078125 -44.453125 C 9.617188 -44.453125 10.941406 -43.898438 12.046875 -42.796875 C 13.160156 -41.691406 13.71875 -40.367188 13.71875 -38.828125 C 13.71875 -37.296875 13.160156 -35.972656 12.046875 -34.859375 C 10.941406 -33.753906 9.617188 -33.203125 8.078125 -33.203125 C 6.546875 -33.203125 5.226562 -33.753906 4.125 -34.859375 C 3.019531 -35.972656 2.46875 -37.296875 2.46875 -38.828125 C 2.46875 -40.367188 3.019531 -41.691406 4.125 -42.796875 Z M 3.21875 -27.484375 L 3.21875 0 L 12.6875 0 L 12.6875 -27.484375 Z M 3.21875 -27.484375 "/></g></g></g><g fill="#e4e2dd" fill-opacity="1"><g transform="translate(148.290483, 202.016094)"><g><path d="M 28.765625 -44.1875 L 28.765625 -35.34375 L 13.28125 -35.34375 L 13.28125 -26.5625 L 27.578125 -26.5625 L 27.578125 -17.734375 L 13.28125 -17.734375 L 13.28125 0 L 3.21875 0 L 3.21875 -44.1875 Z M 28.765625 -44.1875 "/></g></g></g><g fill="#e4e2dd" fill-opacity="1"><g transform="translate(174.102003, 202.016094)"><g><path d="M 4.125 -42.796875 C 5.226562 -43.898438 6.546875 -44.453125 8.078125 -44.453125 C 9.617188 -44.453125 10.941406 -43.898438 12.046875 -42.796875 C 13.160156 -41.691406 13.71875 -40.367188 13.71875 -38.828125 C 13.71875 -37.296875 13.160156 -35.972656 12.046875 -34.859375 C 10.941406 -33.753906 9.617188 -33.203125 8.078125 -33.203125 C 6.546875 -33.203125 5.226562 -33.753906 4.125 -34.859375 C 3.019531 -35.972656 2.46875 -37.296875 2.46875 -38.828125 C 2.46875 -40.367188 3.019531 -41.691406 4.125 -42.796875 Z M 3.21875 -27.484375 L 3.21875 0 L 12.6875 0 L 12.6875 -27.484375 Z M 3.21875 -27.484375 "/></g></g></g><g fill="#e4e2dd" fill-opacity="1"><g transform="translate(185.721818, 202.016094)"><g><path d="M 3.21875 0 L 3.21875 -27.484375 L 12.6875 -27.484375 L 12.6875 -24.578125 L 12.796875 -24.578125 C 15.265625 -27.046875 17.890625 -28.28125 20.671875 -28.28125 C 22.023438 -28.28125 23.375 -28.097656 24.71875 -27.734375 C 26.0625 -27.378906 27.347656 -26.828125 28.578125 -26.078125 C 29.804688 -25.328125 30.804688 -24.265625 31.578125 -22.890625 C 32.347656 -21.515625 32.734375 -19.921875 32.734375 -18.109375 L 32.734375 0 L 23.25 0 L 23.25 -15.53125 C 23.25 -16.957031 22.789062 -18.207031 21.875 -19.28125 C 20.96875 -20.351562 19.78125 -20.890625 18.3125 -20.890625 C 16.882812 -20.890625 15.585938 -20.332031 14.421875 -19.21875 C 13.265625 -18.113281 12.6875 -16.882812 12.6875 -15.53125 L 12.6875 0 Z M 3.21875 0 "/></g></g></g><g fill="#e4e2dd" fill-opacity="1"><g transform="translate(216.567383, 202.016094)"><g><path d="M 5.078125 -3.40625 C 2.515625 -6.207031 1.234375 -9.640625 1.234375 -13.703125 C 1.234375 -17.773438 2.515625 -21.222656 5.078125 -24.046875 C 7.648438 -26.867188 10.921875 -28.28125 14.890625 -28.28125 C 18.535156 -28.28125 21.535156 -27.140625 23.890625 -24.859375 L 23.890625 -27.484375 L 33.375 -27.484375 L 33.375 0 L 24 0 L 24 -3.109375 L 23.890625 -3.109375 C 21.535156 -0.503906 18.535156 0.796875 14.890625 0.796875 C 10.921875 0.796875 7.648438 -0.601562 5.078125 -3.40625 Z M 13.140625 -18.359375 C 11.910156 -17.148438 11.296875 -15.597656 11.296875 -13.703125 C 11.296875 -11.816406 11.882812 -10.273438 13.0625 -9.078125 C 14.25 -7.878906 15.804688 -7.28125 17.734375 -7.28125 C 19.585938 -7.28125 21.113281 -7.882812 22.3125 -9.09375 C 23.507812 -10.3125 24.109375 -11.851562 24.109375 -13.71875 C 24.109375 -15.601562 23.488281 -17.148438 22.25 -18.359375 C 21.019531 -19.578125 19.515625 -20.1875 17.734375 -20.1875 C 15.910156 -20.1875 14.378906 -19.578125 13.140625 -18.359375 Z M 13.140625 -18.359375 "/></g></g></g><g fill="#e4e2dd" fill-opacity="1"><g transform="translate(248.59114, 202.016094)"><g><path d="M 3.21875 0 L 3.21875 -27.484375 L 12.6875 -27.484375 L 12.6875 -24.578125 L 12.796875 -24.578125 C 15.265625 -27.046875 17.890625 -28.28125 20.671875 -28.28125 C 22.023438 -28.28125 23.375 -28.097656 24.71875 -27.734375 C 26.0625 -27.378906 27.347656 -26.828125 28.578125 -26.078125 C 29.804688 -25.328125 30.804688 -24.265625 31.578125 -22.890625 C 32.347656 -21.515625 32.734375 -19.921875 32.734375 -18.109375 L 32.734375 0 L 23.25 0 L 23.25 -15.53125 C 23.25 -16.957031 22.789062 -18.207031 21.875 -19.28125 C 20.96875 -20.351562 19.78125 -20.890625 18.3125 -20.890625 C 16.882812 -20.890625 15.585938 -20.332031 14.421875 -19.21875 C 13.265625 -18.113281 12.6875 -16.882812 12.6875 -15.53125 L 12.6875 0 Z M 3.21875 0 "/></g></g></g><g fill="#e4e2dd" fill-opacity="1"><g transform="translate(279.436704, 202.016094)"><g><path d="M 17.84375 -20.515625 C 16.050781 -20.515625 14.507812 -19.851562 13.21875 -18.53125 C 11.9375 -17.207031 11.296875 -15.617188 11.296875 -13.765625 C 11.296875 -11.867188 11.9375 -10.257812 13.21875 -8.9375 C 14.507812 -7.625 16.050781 -6.96875 17.84375 -6.96875 C 18.695312 -6.96875 19.503906 -7.070312 20.265625 -7.28125 C 21.035156 -7.5 21.597656 -7.710938 21.953125 -7.921875 L 22.4375 -8.25 L 25.65625 -1.65625 C 25.40625 -1.476562 25.054688 -1.253906 24.609375 -0.984375 C 24.160156 -0.722656 23.140625 -0.363281 21.546875 0.09375 C 19.960938 0.5625 18.257812 0.796875 16.4375 0.796875 C 12.40625 0.796875 8.863281 -0.617188 5.8125 -3.453125 C 2.757812 -6.296875 1.234375 -9.695312 1.234375 -13.65625 C 1.234375 -17.65625 2.757812 -21.09375 5.8125 -23.96875 C 8.863281 -26.84375 12.40625 -28.28125 16.4375 -28.28125 C 18.257812 -28.28125 19.9375 -28.066406 21.46875 -27.640625 C 23.007812 -27.210938 24.101562 -26.785156 24.75 -26.359375 L 25.65625 -25.703125 L 22.4375 -19.234375 C 21.257812 -20.085938 19.726562 -20.515625 17.84375 -20.515625 Z M 17.84375 -20.515625 "/></g></g></g><g fill="#e4e2dd" fill-opacity="1"><g transform="translate(301.178151, 202.016094)"><g><path d="M 31.015625 -12.421875 L 11.09375 -12.421875 C 11.09375 -10.492188 11.71875 -9.066406 12.96875 -8.140625 C 14.21875 -7.210938 15.570312 -6.75 17.03125 -6.75 C 18.570312 -6.75 19.785156 -6.953125 20.671875 -7.359375 C 21.566406 -7.773438 22.585938 -8.585938 23.734375 -9.796875 L 30.578125 -6.375 C 27.722656 -1.59375 22.976562 0.796875 16.34375 0.796875 C 12.195312 0.796875 8.640625 -0.617188 5.671875 -3.453125 C 2.710938 -6.296875 1.234375 -9.71875 1.234375 -13.71875 C 1.234375 -17.71875 2.710938 -21.144531 5.671875 -24 C 8.640625 -26.851562 12.195312 -28.28125 16.34375 -28.28125 C 20.695312 -28.28125 24.238281 -27.019531 26.96875 -24.5 C 29.695312 -21.988281 31.0625 -18.394531 31.0625 -13.71875 C 31.0625 -13.070312 31.046875 -12.640625 31.015625 -12.421875 Z M 11.359375 -17.671875 L 21.796875 -17.671875 C 21.585938 -19.097656 21.023438 -20.195312 20.109375 -20.96875 C 19.203125 -21.738281 18.035156 -22.125 16.609375 -22.125 C 15.035156 -22.125 13.785156 -21.710938 12.859375 -20.890625 C 11.929688 -20.066406 11.429688 -18.992188 11.359375 -17.671875 Z M 11.359375 -17.671875 "/></g></g></g><path stroke-linecap="butt" transform="matrix(0.75, 0, 0, 0.75, 28.475838, 203.614177)" fill="none" stroke-linejoin="miter" d="M 0.000965693 4.998806 L 84.433263 4.998806 " stroke="#e4e2dd" stroke-width="10" stroke-opacity="1" stroke-miterlimit="4"/><path stroke-linecap="butt" transform="matrix(0, 0.75, -0.75, 0, 35.971994, 147.020484)" fill="none" stroke-linejoin="miter" d="M -0.00127026 4.999118 L 82.462277 4.999118 " stroke="#e4e2dd" stroke-width="10" stroke-opacity="1" stroke-miterlimit="4"/><path stroke-linecap="butt" transform="matrix(-0.75, 0, 0, -0.75, 345.240889, 154.508954)" fill="none" stroke-linejoin="miter" d="M -0.00173129 5.001522 L 84.430566 5.001522 " stroke="#e4e2dd" stroke-width="10" stroke-opacity="1" stroke-miterlimit="4"/><path stroke-linecap="butt" transform="matrix(0, -0.75, 0.75, 0, 337.744758, 211.102647)" fill="none" stroke-linejoin="miter" d="M 0.00144592 5.001781 L 82.464993 5.001781 " stroke="#e4e2dd" stroke-width="10" stroke-opacity="1" stroke-miterlimit="4"/></svg>