<svg id="Layer_1" enable-background="new 0 0 512 512" height="512" viewBox="0 0 512 512" width="512" xmlns="http://www.w3.org/2000/svg"><g><path d="m342.8 82.9h15v15h-15z" transform="matrix(.707 -.707 .707 .707 38.678 274.168)"/><path d="m316.3 56.4h15v15h-15z" transform="matrix(.707 -.707 .707 .707 49.662 247.652)"/><path d="m342.8 56.4h15v15h-15z" transform="matrix(.707 -.707 .707 .707 57.428 266.402)"/><path d="m316.3 82.9h15v15h-15z" transform="matrix(.707 -.707 .707 .707 30.911 255.418)"/><path d="m30.7 82.9h15v15h-15z" transform="matrix(.707 -.707 .707 .707 -52.742 53.461)"/><path d="m57.2 56.4h15v15h-15z" transform="matrix(.707 -.707 .707 .707 -26.225 64.445)"/><path d="m30.7 56.4h15v15h-15z" transform="matrix(.707 -.707 .707 .707 -33.992 45.695)"/><path d="m57.2 82.9h15v15h-15z" transform="matrix(.707 -.707 .707 .707 -44.975 72.212)"/><path d="m436.5 224.7c-26.3-26.3-61-42.8-97.7-47 4.2 5.5 8 11.2 11.4 17 28.4 5.8 54.9 19.8 75.6 40.6 58.1 58.1 58.1 152.6 0 210.6-58.1 58.1-152.6 58.1-210.6 0-28.1-28.1-43.6-65.5-43.6-105.3s15.5-77.2 43.6-105.3c11.4-11.4 24.3-20.7 38.6-27.9 10.6 6.7 20.1 15.1 27.9 24.9-15.6 6.3-29.6 15.6-41.7 27.7-23.9 23.9-37.1 55.8-37.1 89.6s13.2 65.7 37.1 89.6c24.7 24.7 57.1 37.1 89.6 37.1 32.4 0 64.9-12.4 89.6-37.1 49.4-49.4 49.4-129.8 0-179.2-19.2-19.2-44.2-31.8-70.9-35.7-5.9-14.6-14-28.4-24.1-41-20.6-25.9-48.8-45.1-80.1-55l37.8-50.8-44.3-70h-86.9l-44.3 70 37.8 50.8c-31.3 9.9-59.5 29.1-80.1 55-23.5 29.7-36.1 65.5-36.1 103.6 0 91.6 74.5 166.2 166.2 166.2 2.3 0 4.6-.1 6.9-.2 1.1 1.2 2.3 2.4 3.5 3.6 32 32 73.9 47.9 115.9 47.9s84-16 115.9-47.9c64-63.9 64-167.9.1-231.8zm-202.5 182.7c-10.4-17.2-16-37-16-57.7 0-29.8 11.6-57.9 32.7-79 11.5-11.5 24.9-20.1 39.9-25.7 10.1 16.8 15.9 36.5 15.9 57.4-.1 47.1-29 88.5-72.5 105zm119.9-166.8c20.7 4.6 39.4 14.8 54.7 30 43.6 43.6 43.6 114.4 0 158-21.8 21.8-50.4 32.7-79 32.7-23.8 0-47.7-7.6-67.6-22.7 59.3-26.5 98.3-86 98.3-151.7.1-15.9-2.1-31.4-6.4-46.3zm-8.5 46.3c0 62.1-38.3 118.1-95.8 140.7-2.4-2.4-4.6-5-6.8-7.6 21.3-8.8 39.7-23.1 53.6-41.9 16.3-22 24.9-48.2 24.9-75.7 0-65.3-49.5-119.2-112.9-126.4l26-34.9c65.7 18.1 111 77.3 111 145.8zm-125.8-150.8 19.2-51.4h19.2zm-25.4 25.1-28.5-76.5h57zm7.5-138.7h27.7l29.8 47.2h-57.5zm-42.6 0h27.7v47.2h-57.5zm-28.5 62.2h19.2l19.2 51.4zm-87.6 202.2c0-68.5 45.3-127.7 110.8-145.7l26 34.9c-63.3 7.1-112.8 61-112.8 126.3 0 59.1 40.7 109.4 96.1 123.4-3.2-6-6.1-12.1-8.7-18.4-42.4-16.1-72.4-57.3-72.4-105 0-61.9 50.3-112.2 112.2-112.2 15.5 0 30.2 3.1 43.6 8.8-12.1 7.1-23.2 15.6-33.2 25.6-31 31-48 72.1-48 115.9 0 35.5 11.2 69.3 32 97.3-80.7-2.8-145.6-69.4-145.6-150.9z"/><path d="m155.4 167.8-4.6-14.3c-27.1 8.8-50.5 25.3-67.8 47.8l11.9 9.1c15.4-20 36.3-34.8 60.5-42.6z"/><path d="m85.5 224.6-13-7.4c-2.9 5.1-5.5 10.4-7.8 15.9l13.9 5.7c1.9-4.9 4.3-9.6 6.9-14.2z"/><path d="m184.1 320.7 14.8 2.1c.7-4.8 1.7-9.5 2.9-14.1l-14.5-3.9c-1.4 5.2-2.5 10.6-3.2 15.9z"/><path d="m233.7 253.7c7.6-7.6 16.1-14.1 25.2-19.4l-7.5-13c-10.3 6-19.8 13.3-28.3 21.8-13.3 13.3-23.5 28.7-30.4 45.8l13.9 5.6c6.1-15.3 15.2-29 27.1-40.8z"/></g></svg>