<svg id="Layer_1" height="512" viewBox="0 0 512 512" width="512" xmlns="http://www.w3.org/2000/svg" data-name="Layer 1"><path d="m100 0h312a100.193 100.193 0 0 1 100 100v312a100.193 100.193 0 0 1 -100 100h-312a100.193 100.193 0 0 1 -100-100v-312a100.193 100.193 0 0 1 100-100zm11.49 334.889a18.786 18.786 0 0 0 26.532 0l117.978-117.979 118.006 117.979a18.751 18.751 0 0 0 26.5-26.533l-131.24-131.244a18.784 18.784 0 0 0 -26.532 0l-131.244 131.244a18.785 18.785 0 0 0 0 26.533z" fill-rule="evenodd"/></svg>