<svg viewBox="0 0 512 512" xmlns="http://www.w3.org/2000/svg"><g id="Layer_2" data-name="Layer 2"><g id="Layer_1_copy_4" data-name="Layer 1 copy 4"><g id="_126" data-name="126"><path d="m384.68 0h-257.36a127.32 127.32 0 0 0 -127.32 127.32v257.36a127.32 127.32 0 0 0 127.32 127.32h257.36a127.32 127.32 0 0 0 127.32-127.32v-257.36a127.32 127.32 0 0 0 -127.32-127.32zm22.84 337.17a15.29 15.29 0 0 1 -21.63 0l-129.89-129.89-129.89 129.89a15.29 15.29 0 0 1 -21.63-21.63l140.71-140.71a15.29 15.29 0 0 1 21.62 0l140.71 140.71a15.3 15.3 0 0 1 0 21.63z"/></g></g></g></svg>